<?xml version="1.0" encoding="UTF-8" standalone="no"?>
<svg
   xmlns:dc="http://purl.org/dc/elements/1.1/"
   xmlns:cc="http://creativecommons.org/ns#"
   xmlns:rdf="http://www.w3.org/1999/02/22-rdf-syntax-ns#"
   xmlns:svg="http://www.w3.org/2000/svg"
   xmlns="http://www.w3.org/2000/svg"
   xmlns:sodipodi="http://sodipodi.sourceforge.net/DTD/sodipodi-0.dtd"
   xmlns:inkscape="http://www.inkscape.org/namespaces/inkscape"
   id="Capa_1"
   enable-background="new 0 0 512 512"
   height="512"
   viewBox="0 0 512 512"
   width="512"
   version="1.1"
   sodipodi:docname="london-eye.svg"
   inkscape:version="1.0rc1 (09960d6, 2020-04-09)">
  <metadata
     id="metadata874">
    <rdf:RDF>
      <cc:Work
         rdf:about="">
        <dc:format>image/svg+xml</dc:format>
        <dc:type
           rdf:resource="http://purl.org/dc/dcmitype/StillImage" />
      </cc:Work>
    </rdf:RDF>
  </metadata>
  <defs
     id="defs872" />
  <sodipodi:namedview
     inkscape:document-rotation="0"
     pagecolor="#ffffff"
     bordercolor="#666666"
     borderopacity="1"
     objecttolerance="10"
     gridtolerance="10"
     guidetolerance="10"
     inkscape:pageopacity="0"
     inkscape:pageshadow="2"
     inkscape:window-width="1440"
     inkscape:window-height="878"
     id="namedview870"
     showgrid="false"
     inkscape:zoom="0.53125"
     inkscape:cx="-24.470588"
     inkscape:cy="180.70588"
     inkscape:window-x="0"
     inkscape:window-y="0"
     inkscape:window-maximized="0"
     inkscape:current-layer="Capa_1" />
  <circle
     cx="256.25"
     cy="256"
     fill="#fec753"
     r="245"
     id="circle855"
     style="fill:#db5461;fill-opacity:1" />
  <path
     d="m256 105.467c-123.226 0-226.406 111.129-253.017 142.421-3.978 4.678-3.978 11.545 0 16.223 26.611 31.292 129.791 142.422 253.017 142.422s226.406-111.129 253.017-142.421c3.978-4.678 3.978-11.545 0-16.223-26.611-31.292-129.791-142.422-253.017-142.422z"
     fill="#35528c"
     id="path857" />
  <path
     d="m41.966 256c0-24.313 95.826-150.533 214.034-150.533-122.22 0-224.719 109.322-252.349 141.639-4.381 5.124-4.381 12.663 0 17.788 27.63 32.317 130.129 141.639 252.349 141.639-118.208 0-214.034-126.22-214.034-150.533z"
     fill="#1f3a60"
     id="path859" />
  <circle
     cx="256"
     cy="256"
     fill="#99d3ff"
     r="132"
     id="circle861" />
  <path
     d="m176 256c0-64.001 45.551-117.357 106-129.434-8.407-1.68-17.099-2.566-26-2.566-72.902 0-132 59.098-132 132s59.098 132 132 132c8.901 0 17.593-.887 26-2.566-60.449-12.077-106-65.433-106-129.434z"
     fill="#5bb3ce"
     id="path863" />
  <circle
     cx="254.603"
     cy="256"
     fill="#1f3a60"
     r="65.603"
     id="circle865" />
  <circle
     cx="308.058"
     cy="225.628"
     fill="#dcf3ff"
     r="27.942"
     id="circle867" />
</svg>
